<?xml version="1.0" encoding="UTF-8" standalone="no"?>
<svg
   xmlns:dc="http://purl.org/dc/elements/1.1/"
   xmlns:cc="http://creativecommons.org/ns#"
   xmlns:rdf="http://www.w3.org/1999/02/22-rdf-syntax-ns#"
   xmlns:svg="http://www.w3.org/2000/svg"
   xmlns="http://www.w3.org/2000/svg"
   xmlns:sodipodi="http://sodipodi.sourceforge.net/DTD/sodipodi-0.dtd"
   xmlns:inkscape="http://www.inkscape.org/namespaces/inkscape"
   version="1.1"
   id="Layer_1"
   x="0px"
   y="0px"
   viewBox="0 0 300 100"
   xml:space="preserve"
   sodipodi:docname="ico1.svg"
   width="300"
   height="100"
   inkscape:version="1.0 (4035a4fb49, 2020-05-01)"><metadata
   id="metadata59"><rdf:RDF><cc:Work
       rdf:about=""><dc:format>image/svg+xml</dc:format><dc:type
         rdf:resource="http://purl.org/dc/dcmitype/StillImage" /><dc:title></dc:title></cc:Work></rdf:RDF></metadata><defs
   id="defs57">
	

		
		
		
		
		
		
		
		
		
	</defs><sodipodi:namedview
   inkscape:document-rotation="0"
   pagecolor="#ffffff"
   bordercolor="#666666"
   borderopacity="1"
   objecttolerance="10"
   gridtolerance="10"
   guidetolerance="10"
   inkscape:pageopacity="0"
   inkscape:pageshadow="2"
   inkscape:window-width="1920"
   inkscape:window-height="1017"
   id="namedview55"
   showgrid="false"
   fit-margin-top="0"
   fit-margin-left="0"
   fit-margin-right="0"
   fit-margin-bottom="0"
   inkscape:zoom="1.7314939"
   inkscape:cx="150.0795"
   inkscape:cy="186.57737"
   inkscape:window-x="1592"
   inkscape:window-y="-8"
   inkscape:window-maximized="1"
   inkscape:current-layer="Layer_1" />
<g
   id="g927"
   transform="matrix(0.35619132,0,0,0.35619132,96.542985,-3.4568371)"
   style="stroke-width:2.80748"><g
     style="fill:#74a2f0;fill-opacity:1;stroke-width:2.80748"
     id="g906"><path
       style="fill:#74a2f0;fill-opacity:1;stroke-width:2.80748"
       d="m 242.064,135.531 c -32.035,0 -58.095,-26.061 -58.095,-58.095 0,-32.034 26.061,-58.095 58.095,-58.095 32.034,0 58.095,26.061 58.095,58.095 0,32.034 -26.06,58.095 -58.095,58.095 z"
       id="path2" /><path
       style="fill:#74a2f0;fill-opacity:1;stroke-width:2.80748"
       d="M 58.095,135.531 C 26.061,135.531 0,109.471 0,77.436 0,45.401 26.061,19.341 58.095,19.341 c 32.034,0 58.095,26.061 58.095,58.095 0,32.034 -26.06,58.095 -58.095,58.095 z"
       id="path4" /><path
       style="fill:#74a2f0;fill-opacity:1;stroke-width:2.80748"
       d="m 150.08,290.453 c -32.035,0 -58.095,-26.061 -58.095,-58.095 0,-32.034 26.061,-58.095 58.095,-58.095 32.034,0 58.095,26.061 58.095,58.095 0,32.034 -26.06,58.095 -58.095,58.095 z"
       id="path6" /></g><g
     style="fill:#4d4d4d;stroke-width:2.80748"
     id="g914"><path
       style="fill:#4d4d4d;stroke-width:2.80748"
       d="m 246.906,72.595 h -9.683 c -5.34,0 -9.683,-4.343 -9.683,-9.683 0,-5.34 4.343,-9.683 9.683,-9.683 h 9.683 c 5.34,0 9.683,4.343 9.683,9.683 h 9.683 c 0,-10.68 -8.685,-19.365 -19.365,-19.365 v -9.683 h -9.683 v 9.683 c -10.68,0 -19.365,8.685 -19.365,19.365 0,10.68 8.685,19.365 19.365,19.365 h 9.683 c 5.34,0 9.683,4.343 9.683,9.683 0,5.34 -4.343,9.683 -9.683,9.683 h -9.683 c -5.34,0 -9.683,-4.343 -9.683,-9.683 h -9.683 c 0,10.68 8.685,19.365 19.365,19.365 v 9.683 h 9.683 v -9.683 c 10.68,0 19.365,-8.685 19.365,-19.365 0,-10.68 -8.686,-19.365 -19.365,-19.365 z"
       id="path8" /><path
       style="fill:#4d4d4d;stroke-width:2.80748"
       d="m 58.095,111.325 c 9.581,0 18.775,-4.115 25.209,-11.29 L 76.1,93.567 c -4.604,5.132 -11.169,8.075 -18.005,8.075 -7.877,0 -14.819,-3.839 -19.239,-9.683 H 62.937 V 82.276 H 34.378 c -0.32,-1.564 -0.489,-3.186 -0.489,-4.841 0,-1.656 0.169,-3.278 0.489,-4.841 H 62.937 V 62.911 H 38.856 c 4.425,-5.843 11.367,-9.683 19.239,-9.683 6.836,0 13.401,2.944 18.005,8.075 l 7.204,-6.468 C 76.87,47.66 67.676,43.545 58.095,43.545 44.612,43.545 32.978,51.48 27.522,62.91 h -8.158 v 9.683 h 5.229 c -0.228,1.588 -0.387,3.195 -0.387,4.841 0,1.646 0.16,3.253 0.387,4.841 h -5.229 v 9.683 h 8.158 c 5.457,11.432 17.09,19.367 30.573,19.367 z"
       id="path10" /><polygon
       style="fill:#4d4d4d;stroke-width:2.80748"
       points="169.445,246.882 154.921,246.882 154.921,242.04 169.445,242.04 169.445,232.357 156.383,232.357 178.009,206.408 170.563,200.212 150.08,224.796 129.596,200.212 122.15,206.408 143.776,232.357 130.715,232.357 130.715,242.04 145.239,242.04 145.239,246.882 130.715,246.882 130.715,256.564 145.239,256.564 145.239,266.246 154.921,266.246 154.921,256.564 169.445,256.564 "
       id="polygon12" /><path
       style="fill:#4d4d4d;stroke-width:2.80748"
       d="m 216.851,208.799 6.081,7.543 c 21.147,-17.046 35.729,-41.006 41.049,-67.468 l -9.494,-1.912 c -4.875,24.25 -18.242,46.211 -37.636,61.837 z"
       id="path14" /><path
       style="fill:#4d4d4d;stroke-width:2.80748"
       d="m 45.673,146.962 -9.494,1.912 c 5.325,26.458 19.903,50.422 41.049,67.468 l 6.081,-7.538 C 63.915,193.173 50.548,171.212 45.673,146.962 Z"
       id="path16" /><path
       style="fill:#4d4d4d;stroke-width:2.80748"
       d="m 104.528,18.939 3.8,8.908 c 26.448,-11.285 57.055,-11.285 83.502,0 l 3.8,-8.908 c -28.867,-12.312 -62.233,-12.312 -91.102,0 z"
       id="path18" /></g></g>
<g
   id="g24"
   transform="translate(0,-9.7050001)">
</g>
<g
   id="g26"
   transform="translate(0,-9.7050001)">
</g>
<g
   id="g28"
   transform="translate(0,-9.7050001)">
</g>
<g
   id="g30"
   transform="translate(0,-9.7050001)">
</g>
<g
   id="g32"
   transform="translate(0,-9.7050001)">
</g>
<g
   id="g34"
   transform="translate(0,-9.7050001)">
</g>
<g
   id="g36"
   transform="translate(0,-9.7050001)">
</g>
<g
   id="g38"
   transform="translate(0,-9.7050001)">
</g>
<g
   id="g40"
   transform="translate(0,-9.7050001)">
</g>
<g
   id="g42"
   transform="translate(0,-9.7050001)">
</g>
<g
   id="g44"
   transform="translate(0,-9.7050001)">
</g>
<g
   id="g46"
   transform="translate(0,-9.7050001)">
</g>
<g
   id="g48"
   transform="translate(0,-9.7050001)">
</g>
<g
   id="g50"
   transform="translate(0,-9.7050001)">
</g>
<g
   id="g52"
   transform="translate(0,-9.7050001)">
</g>
</svg>
