<?xml version="1.0" encoding="UTF-8" standalone="no"?>
<svg
   xmlns:dc="http://purl.org/dc/elements/1.1/"
   xmlns:cc="http://creativecommons.org/ns#"
   xmlns:rdf="http://www.w3.org/1999/02/22-rdf-syntax-ns#"
   xmlns:svg="http://www.w3.org/2000/svg"
   xmlns="http://www.w3.org/2000/svg"
   xmlns:sodipodi="http://sodipodi.sourceforge.net/DTD/sodipodi-0.dtd"
   xmlns:inkscape="http://www.inkscape.org/namespaces/inkscape"
   height="100"
   viewBox="-32 0 225 75"
   width="300"
   version="1.1"
   id="svg16"
   sodipodi:docname="ico2.svg"
   inkscape:version="1.0 (4035a4fb49, 2020-05-01)">
  <metadata
     id="metadata22">
    <rdf:RDF>
      <cc:Work
         rdf:about="">
        <dc:format>image/svg+xml</dc:format>
        <dc:type
           rdf:resource="http://purl.org/dc/dcmitype/StillImage" />
        <dc:title></dc:title>
      </cc:Work>
    </rdf:RDF>
  </metadata>
  <defs
     id="defs20" />
  <sodipodi:namedview
     inkscape:document-rotation="0"
     pagecolor="#ffffff"
     bordercolor="#666666"
     borderopacity="1"
     objecttolerance="10"
     gridtolerance="10"
     guidetolerance="10"
     inkscape:pageopacity="0"
     inkscape:pageshadow="2"
     inkscape:window-width="1920"
     inkscape:window-height="1017"
     id="namedview18"
     showgrid="false"
     fit-margin-top="0"
     fit-margin-left="0"
     fit-margin-right="0"
     fit-margin-bottom="0"
     units="px"
     inkscape:zoom="0.7858722"
     inkscape:cx="288"
     inkscape:cy="330.66667"
     inkscape:window-x="1592"
     inkscape:window-y="-8"
     inkscape:window-maximized="1"
     inkscape:current-layer="svg16" />
  <g
     id="g891"
     transform="matrix(0.15120968,0,0,0.15120968,47.838709,-6.4e-7)"
     style="stroke-width:6.61333">
    <path
       style="fill:#74a2f0;fill-opacity:1;stroke-width:6.61333"
       id="path12"
       fill="#f0bc5e"
       d="M 280,464 H 152 c -13.23047,0 -24,-10.76953 -24,-24 V 328 c 0,-13.23047 10.76953,-24 24,-24 h 128 c 13.23047,0 24,10.76953 24,24 v 112 c 0,13.23047 -10.76953,24 -24,24 z m 0,0" />
    <g
       style="fill:#4d4d4d;fill-opacity:1;stroke-width:6.61333"
       id="g881">
      <path
         d="m 432,152 c 0,-13.01563 -6.34375,-24.48828 -16,-31.79297 V 84.6875 L 331.3125,0 H 16 V 120.20703 C 6.34375,127.51172 0,138.98437 0,152 c 0,13.01562 6.34375,24.48828 16,31.79297 V 496 H 416 V 183.79297 C 425.65625,176.48828 432,165.01563 432,152 Z M 336,27.3125 388.6875,80 H 336 Z M 32,16 h 288 v 80 h 80 v 16.80859 C 397.41406,112.28125 394.73437,112 392,112 h -16 c -19.3125,0 -35.47266,13.76953 -39.19141,32 H 319.19141 C 315.47266,125.76953 299.32031,112 280,112 h -16 c -19.3125,0 -35.47266,13.76953 -39.19141,32 H 207.19141 C 203.47266,125.76953 187.32031,112 168,112 h -16 c -19.3125,0 -35.47266,13.76953 -39.19141,32 H 95.191406 C 91.472656,125.76953 75.320312,112 56,112 H 40 c -2.734375,0 -5.414062,0.28125 -8,0.80859 z m 270.52734,144 c -3.3125,9.28906 -12.11328,16 -22.52734,16 h -16 c -10.41406,0 -19.21484,-6.71094 -22.52734,-16 H 256 v -16 h -14.52734 c 3.3125,-9.28906 12.11328,-16 22.52734,-16 h 16 c 10.41406,0 19.21484,6.71094 22.52734,16 H 288 v 16 z m -112,0 c -3.3125,9.28906 -12.11328,16 -22.52734,16 h -16 c -10.41406,0 -19.21484,-6.71094 -22.52734,-16 H 144 v -16 h -14.52734 c 3.3125,-9.28906 12.11328,-16 22.52734,-16 h 16 c 10.41406,0 19.21484,6.71094 22.52734,16 H 176 v 16 z M 40,128 h 16 c 10.414062,0 19.214844,6.71094 22.527344,16 H 64 v 16 H 78.527344 C 75.214844,169.28906 66.414062,176 56,176 H 40 C 26.769531,176 16,165.23047 16,152 16,138.76953 26.769531,128 40,128 Z M 400,480 H 32 V 191.19141 C 34.585938,191.71875 37.265625,192 40,192 h 16 c 19.3125,0 35.472656,-13.76953 39.191406,-32 h 17.617184 c 3.71875,18.23047 19.8711,32 39.19141,32 h 16 c 19.3125,0 35.47266,-13.76953 39.19141,-32 h 17.61718 c 3.71875,18.23047 19.8711,32 39.19141,32 h 16 c 19.3125,0 35.47266,-13.76953 39.19141,-32 h 17.61718 c 3.71875,18.23047 19.8711,32 39.19141,32 h 16 c 2.73437,0 5.41406,-0.28125 8,-0.80859 z m -8,-304 h -16 c -10.41406,0 -19.21484,-6.71094 -22.52734,-16 H 368 v -16 h -14.52734 c 3.3125,-9.28906 12.11328,-16 22.52734,-16 h 16 c 13.23047,0 24,10.76953 24,24 0,13.23047 -10.76953,24 -24,24 z m 0,0"
         id="path2"
         style="fill:#4d4d4d;fill-opacity:1;stroke-width:6.61333" />
      <path
         style="fill:#4d4d4d;fill-opacity:1;stroke-width:6.61333"
         d="m 216,208 c -39.69531,0 -72,32.30469 -72,72 v 32 h 16 v -32 c 0,-30.87891 25.12109,-56 56,-56 30.87891,0 56,25.12109 56,56 v 32 h 16 v -32 c 0,-39.69531 -32.30469,-72 -72,-72 z m 0,0"
         id="path4" />
      <path
         style="fill:#4d4d4d;fill-opacity:1;stroke-width:6.61333"
         d="M 48,32 H 304 V 48 H 48 Z m 0,0"
         id="path6" />
      <path
         style="fill:#4d4d4d;fill-opacity:1;stroke-width:6.61333"
         d="M 48,64 H 272 V 80 H 48 Z m 0,0"
         id="path8" />
      <path
         style="fill:#4d4d4d;fill-opacity:1;stroke-width:6.61333"
         d="m 288,64 h 16 v 16 h -16 z m 0,0"
         id="path10" />
      <path
         style="fill:#4d4d4d;fill-opacity:1;stroke-width:6.61333"
         d="m 240,360 c 0,-13.23047 -10.76953,-24 -24,-24 -13.23047,0 -24,10.76953 -24,24 0,10.41406 6.71094,19.21484 16,22.52734 V 432 h 16 v -49.47266 c 9.28906,-3.3125 16,-12.11328 16,-22.52734 z m -24,8 c -4.40625,0 -8,-3.59375 -8,-8 0,-4.40625 3.59375,-8 8,-8 4.40625,0 8,3.59375 8,8 0,4.40625 -3.59375,8 -8,8 z m 0,0"
         id="path14" />
    </g>
  </g>
</svg>
