<?xml version="1.0" encoding="UTF-8" standalone="no"?>
<svg
   xmlns:dc="http://purl.org/dc/elements/1.1/"
   xmlns:cc="http://creativecommons.org/ns#"
   xmlns:rdf="http://www.w3.org/1999/02/22-rdf-syntax-ns#"
   xmlns:svg="http://www.w3.org/2000/svg"
   xmlns="http://www.w3.org/2000/svg"
   xmlns:sodipodi="http://sodipodi.sourceforge.net/DTD/sodipodi-0.dtd"
   xmlns:inkscape="http://www.inkscape.org/namespaces/inkscape"
   version="1.1"
   id="Layer_1"
   x="0px"
   y="0px"
   viewBox="0 0 300 99.999999"
   xml:space="preserve"
   sodipodi:docname="ico3.svg"
   width="300"
   height="100"
   inkscape:version="1.0 (4035a4fb49, 2020-05-01)"><metadata
   id="metadata53"><rdf:RDF><cc:Work
       rdf:about=""><dc:format>image/svg+xml</dc:format><dc:type
         rdf:resource="http://purl.org/dc/dcmitype/StillImage" /><dc:title></dc:title></cc:Work></rdf:RDF></metadata><defs
   id="defs51" /><sodipodi:namedview
   inkscape:document-rotation="0"
   pagecolor="#ffffff"
   bordercolor="#666666"
   borderopacity="1"
   objecttolerance="10"
   gridtolerance="10"
   guidetolerance="10"
   inkscape:pageopacity="0"
   inkscape:pageshadow="2"
   inkscape:window-width="1920"
   inkscape:window-height="1017"
   id="namedview49"
   showgrid="false"
   fit-margin-top="0"
   fit-margin-left="0"
   fit-margin-right="0"
   fit-margin-bottom="0"
   inkscape:zoom="1.7314881"
   inkscape:cx="150.08"
   inkscape:cy="150.07"
   inkscape:window-x="1592"
   inkscape:window-y="-8"
   inkscape:window-maximized="1"
   inkscape:current-layer="Layer_1" />
<g
   id="g914"
   transform="matrix(0.33317785,0,0,0.33317785,99.996668,-0.00333173)"
   style="stroke-width:3.0014"><g
     style="fill:#4d4d4d;fill-opacity:1;stroke-width:3.0014"
     id="g16">
	<g
   style="fill:#4d4d4d;fill-opacity:1;stroke-width:3.0014"
   id="g14">
		<path
   id="path2"
   d="M 135.556,48.403 82.302,33.899 69.216,44.782 C 65.106,38.619 62.937,31.449 62.937,24.047 V 12.113 c 0,-6.676 5.427,-12.103 12.103,-12.103 6.676,0 12.103,5.427 12.103,12.103 v 4.841 c 0,1.331 1.089,2.421 2.421,2.421 1.332,0 2.421,-1.089 2.421,-2.421 v -4.841 c 0,-6.676 5.427,-12.103 12.103,-12.103 6.676,0 12.103,5.427 12.103,12.103 v 4.841 c 0,1.331 1.089,2.421 2.421,2.421 1.332,0 2.421,-1.089 2.421,-2.421 v -4.841 c 0,-6.676 5.427,-12.103 12.103,-12.103 6.676,0 12.103,5.427 12.103,12.103 v 11.934 c 0,7.402 -2.169,14.577 -6.279,20.735 z"
   style="fill:#74a2f0;fill-opacity:1;stroke-width:3.0014" />
		<path
   id="path4"
   d="m 59.238,121.022 -9.683,-4.841 H 33.889 V 43.562 H 0 v 91.984 h 33.889 v -9.683 H 47.27 l 9.683,4.841 h 5.984 v -9.683 z m -35.032,4.842 H 9.683 v -72.62 h 14.524 v 72.62 z"
   style="fill:#4d4d4d;fill-opacity:1;stroke-width:3.0014" />
		<path
   id="path6"
   d="m 106.542,227.55 c -0.876,0 -1.748,-0.015 -2.629,-0.053 C 71.234,226.18 44.167,198.483 43.581,165.761 43.276,148.884 49.594,132.923 61.363,120.824 71.743,110.149 77.46,96.831 77.46,83.333 l 24.206,-15.545 9.683,9.683 v 48.393 h 33.889 l 5.669,-5.829 c 11.958,11.89 18.537,27.716 18.537,44.579 0,17.293 -6.87,33.415 -19.346,45.397 -11.831,11.366 -27.216,17.539 -43.556,17.539 z"
   style="fill:#74a2f0;fill-opacity:1;stroke-width:3.0014" />
		<path
   id="path8"
   d="m 130.715,154.911 v -2.401 c 0,-9.344 -7.601,-16.964 -16.945,-16.964 h -2.421 v -9.683 h -9.683 v 9.683 h -2.421 c -9.344,0 -16.944,7.601 -16.944,16.944 0,9.344 7.601,16.945 16.944,16.945 h 14.524 c 4.004,0 7.262,3.258 7.262,7.262 0,4.004 -3.258,7.262 -7.262,7.262 H 99.246 c -4.004,0 -7.262,-3.239 -7.262,-7.243 v -2.44 h -9.683 v 2.44 c 0,9.344 7.601,16.925 16.944,16.925 h 2.421 v 9.683 h 9.683 v -9.683 h 2.421 c 9.344,0 16.945,-7.601 16.945,-16.944 0,-9.344 -7.601,-16.945 -16.945,-16.945 H 99.246 c -4.004,0 -7.262,-3.258 -7.262,-7.262 0,-4.004 3.258,-7.262 7.262,-7.262 h 14.524 c 4.004,0 7.262,3.278 7.262,7.281 v 2.401 z"
   style="fill:#4d4d4d;fill-opacity:1;stroke-width:3.0014" />
		<path
   id="path10"
   d="m 151.145,67.788 c 2.324,-2.576 3.776,-5.96 3.776,-9.692 0,-8.007 -6.516,-14.534 -14.524,-14.534 H 122.378 L 119.008,39.35 81.174,28.53 51.502,53.244 H 29.048 v 9.683 h 25.959 l 28.428,-23.679 29.943,8.559 10.186,12.728 c 1.346,1.685 1.941,3.796 1.67,5.935 -0.271,2.14 -1.375,4.038 -3.103,5.33 -3.123,2.343 -7.562,2.028 -10.331,-0.736 l -9.77,-9.77 -27.59,22.073 6.047,7.562 20.822,-16.659 3.641,3.645 c 0.533,0.533 1.128,0.968 1.714,1.418 0.353,3.534 1.641,5.611 3.621,7.804 -2.324,2.576 -3.776,5.955 -3.776,9.687 0,3.732 1.457,7.112 3.776,9.683 -2.324,2.576 -3.776,5.94 -3.776,9.673 0,8.017 6.516,14.524 14.524,14.524 h 19.365 c 8.007,0 14.524,-6.507 14.524,-14.514 0,-3.733 -1.457,-7.102 -3.776,-9.678 2.324,-2.576 3.776,-5.945 3.776,-9.683 0,-3.737 -1.457,-7.107 -3.776,-9.683 2.324,-2.576 3.776,-5.95 3.776,-9.683 -0.001,-3.73 -1.458,-7.1 -3.777,-9.675 z m -10.748,53.234 h -19.365 c -2.668,0 -4.841,-2.174 -4.841,-4.841 0,-2.668 2.174,-4.841 4.841,-4.841 h 19.365 c 2.668,0 4.841,2.174 4.841,4.841 0.001,2.668 -2.173,4.841 -4.841,4.841 z m 0,-19.365 h -19.365 c -2.668,0 -4.841,-2.174 -4.841,-4.841 0,-2.668 2.174,-4.841 4.841,-4.841 h 19.365 c 2.668,0 4.841,2.174 4.841,4.841 0.001,2.668 -2.173,4.841 -4.841,4.841 z m 0,-19.365 H 122.46 c 1.932,-0.576 3.796,-1.477 5.48,-2.74 2.44,-1.83 4.241,-4.236 5.442,-6.942 h 7.015 c 2.668,0 4.841,2.174 4.841,4.841 0,2.667 -2.173,4.841 -4.841,4.841 z m 0,-19.365 h -5.679 c -0.445,-3.05 -1.612,-5.955 -3.597,-8.438 l -0.997,-1.244 h 10.273 c 2.668,0 4.841,2.174 4.841,4.841 0.001,2.667 -2.173,4.841 -4.841,4.841 z"
   style="fill:#4d4d4d;fill-opacity:1;stroke-width:3.0014" />
		<path
   id="path12"
   d="m 266.271,227.531 v 14.524 h -32.422 l -13.304,-8.869 -40.802,-14.471 c -3.883,-1.365 -8.051,-1.089 -11.721,0.775 -3.675,1.864 -6.352,5.059 -7.548,9 -2.067,6.821 1.002,14.204 7.296,17.545 l 10.481,5.567 -15.24,0.048 -6.265,-15.666 c -2.062,-5.132 -6.967,-8.453 -12.505,-8.453 -4.323,0 -8.409,2.101 -10.932,5.606 -2.522,3.515 -3.205,8.056 -1.825,12.152 l 1.467,4.347 -10.622,-5.805 c -3.379,-1.854 -7.417,-2.212 -11.072,-0.978 -3.655,1.22 -6.662,3.936 -8.25,7.446 -3.108,6.865 -0.247,14.858 6.512,18.194 l 23.897,11.793 49.604,10.089 64.365,0.092 18.886,-3.776 v 13.459 h 33.889 v -72.619 z m -125.099,11.256 c 1.627,-2.266 5.548,-1.786 6.579,0.799 l 4.841,12.098 -8.724,0.029 -3.205,-9.518 c -0.392,-1.167 -0.208,-2.406 0.509,-3.408 z m 105.254,41.998 h -61.978 l -47.319,-9.465 -23.325,-11.508 c -2.048,-1.012 -2.919,-3.437 -1.975,-5.524 0.489,-1.08 1.375,-1.883 2.503,-2.256 1.118,-0.387 2.319,-0.276 3.36,0.3 l 16.63,9.087 h 45.949 l 19.104,-9.552 -27.058,-14.383 c -2.217,-1.181 -3.302,-3.781 -2.576,-6.187 0.421,-1.389 1.365,-2.522 2.663,-3.176 1.293,-0.663 2.764,-0.75 4.134,-0.276 l 39.147,13.735 15.231,10.157 h 35.356 v 25.078 z m 44.051,9.682 h -14.524 v -53.254 h 14.524 z"
   style="fill:#4d4d4d;fill-opacity:1;stroke-width:3.0014" />
	</g>
</g></g>
<g
   id="g18"
   transform="translate(0,-0.01)">
</g>
<g
   id="g20"
   transform="translate(0,-0.01)">
</g>
<g
   id="g22"
   transform="translate(0,-0.01)">
</g>
<g
   id="g24"
   transform="translate(0,-0.01)">
</g>
<g
   id="g26"
   transform="translate(0,-0.01)">
</g>
<g
   id="g28"
   transform="translate(0,-0.01)">
</g>
<g
   id="g30"
   transform="translate(0,-0.01)">
</g>
<g
   id="g32"
   transform="translate(0,-0.01)">
</g>
<g
   id="g34"
   transform="translate(0,-0.01)">
</g>
<g
   id="g36"
   transform="translate(0,-0.01)">
</g>
<g
   id="g38"
   transform="translate(0,-0.01)">
</g>
<g
   id="g40"
   transform="translate(0,-0.01)">
</g>
<g
   id="g42"
   transform="translate(0,-0.01)">
</g>
<g
   id="g44"
   transform="translate(0,-0.01)">
</g>
<g
   id="g46"
   transform="translate(0,-0.01)">
</g>
</svg>
