<?xml version="1.0" encoding="UTF-8" standalone="no"?>
<svg
   xmlns:dc="http://purl.org/dc/elements/1.1/"
   xmlns:cc="http://creativecommons.org/ns#"
   xmlns:rdf="http://www.w3.org/1999/02/22-rdf-syntax-ns#"
   xmlns:svg="http://www.w3.org/2000/svg"
   xmlns="http://www.w3.org/2000/svg"
   xmlns:sodipodi="http://sodipodi.sourceforge.net/DTD/sodipodi-0.dtd"
   xmlns:inkscape="http://www.inkscape.org/namespaces/inkscape"
   inkscape:version="1.0 (4035a4fb49, 2020-05-01)"
   sodipodi:docname="icono3.svg"
   id="svg52"
   version="1.1"
   width="350"
   viewBox="0 0 262.5 112.5"
   height="150">
  <metadata
     id="metadata58">
    <rdf:RDF>
      <cc:Work
         rdf:about="">
        <dc:format>image/svg+xml</dc:format>
        <dc:type
           rdf:resource="http://purl.org/dc/dcmitype/StillImage" />
        <dc:title></dc:title>
      </cc:Work>
    </rdf:RDF>
  </metadata>
  <defs
     id="defs56" />
  <sodipodi:namedview
     inkscape:current-layer="svg52"
     inkscape:window-maximized="1"
     inkscape:window-y="-8"
     inkscape:window-x="1592"
     inkscape:cy="222.69388"
     inkscape:cx="330.66667"
     inkscape:zoom="1.1113911"
     fit-margin-bottom="0"
     fit-margin-right="0"
     fit-margin-left="0"
     fit-margin-top="0"
     showgrid="false"
     id="namedview54"
     inkscape:window-height="1017"
     inkscape:window-width="1920"
     inkscape:pageshadow="2"
     inkscape:pageopacity="0"
     guidetolerance="10"
     gridtolerance="10"
     objecttolerance="10"
     borderopacity="1"
     bordercolor="#666666"
     pagecolor="#ffffff"
     inkscape:document-rotation="0"
     units="px" />
  <g
     style="fill:#4d4d4e;fill-opacity:1"
     id="g881"
     transform="translate(18.75)">
    <g
       style="fill:#4d4d4e;fill-opacity:1;stroke-width:1.33333"
       transform="matrix(0.75,0,0,0.75,56.25,0)"
       id="g905">
      <path
         style="fill:#74a2f0;fill-opacity:1;stroke-width:1.33333"
         id="path2"
         fill="#f0bc5e"
         d="m 118.54839,56.279535 v -5.473083 c 0,-6.669765 -5.42701,-12.096774 -12.09678,-12.096774 H 38.709678 c -6.669765,0 -12.096774,5.427009 -12.096774,12.096774 v 9.67742 c 0,6.669765 5.427009,12.096774 12.096774,12.096774 h 65.489152 c 0.99231,-7.925513 6.76781,-14.344836 14.34956,-16.301111 z m 0,0" />
      <path
         id="path4"
         d="m 70.161292,48.387098 h 4.838709 v 4.838709 h -4.838709 z m 0,0"
         style="fill:#4d4d4e;fill-opacity:1;stroke-width:1.33333" />
      <path
         id="path6"
         d="m 70.161292,58.064517 h 4.838709 v 4.83871 h -4.838709 z m 0,0"
         style="fill:#4d4d4e;fill-opacity:1;stroke-width:1.33333" />
      <path
         id="path8"
         d="m 75.000001,53.225807 h 4.83871 v 4.83871 h -4.83871 z m 0,0"
         style="fill:#4d4d4e;fill-opacity:1;stroke-width:1.33333" />
      <path
         id="path10"
         d="m 65.322582,53.225807 h 4.83871 v 4.83871 h -4.83871 z m 0,0"
         style="fill:#4d4d4e;fill-opacity:1;stroke-width:1.33333" />
      <path
         id="path12"
         d="m 94.35484,48.387098 h 4.83871 v 4.838709 h -4.83871 z m 0,0"
         style="fill:#4d4d4e;fill-opacity:1;stroke-width:1.33333" />
      <path
         id="path14"
         d="m 94.35484,58.064517 h 4.83871 v 4.83871 h -4.83871 z m 0,0"
         style="fill:#4d4d4e;fill-opacity:1;stroke-width:1.33333" />
      <path
         id="path16"
         d="m 99.19355,53.225807 h 4.83871 v 4.83871 h -4.83871 z m 0,0"
         style="fill:#4d4d4e;fill-opacity:1;stroke-width:1.33333" />
      <path
         id="path18"
         d="m 89.516131,53.225807 h 4.838709 v 4.83871 h -4.838709 z m 0,0"
         style="fill:#4d4d4e;fill-opacity:1;stroke-width:1.33333" />
      <path
         id="path20"
         d="m 45.967743,48.387098 h 4.838709 v 4.838709 h -4.838709 z m 0,0"
         style="fill:#4d4d4e;fill-opacity:1;stroke-width:1.33333" />
      <path
         id="path22"
         d="m 45.967743,58.064517 h 4.838709 v 4.83871 h -4.838709 z m 0,0"
         style="fill:#4d4d4e;fill-opacity:1;stroke-width:1.33333" />
      <path
         id="path24"
         d="m 50.806452,53.225807 h 4.83871 v 4.83871 h -4.83871 z m 0,0"
         style="fill:#4d4d4e;fill-opacity:1;stroke-width:1.33333" />
      <path
         id="path26"
         d="m 41.129033,53.225807 h 4.83871 v 4.83871 h -4.83871 z m 0,0"
         style="fill:#4d4d4e;fill-opacity:1;stroke-width:1.33333" />
      <path
         id="path28"
         d="m 48.387098,101.6129 h 4.838709 v 33.87097 h -4.838709 z m 0,0"
         style="fill:#4d4d4e;fill-opacity:1;stroke-width:1.33333" />
      <path
         id="path30"
         d="m 48.387098,140.32258 h 4.838709 v 4.83871 h -4.838709 z m 0,0"
         style="fill:#4d4d4e;fill-opacity:1;stroke-width:1.33333" />
      <path
         id="path32"
         d="m 62.903227,120.96774 h 4.83871 v 4.83871 h -4.83871 z m 0,0"
         style="fill:#4d4d4e;fill-opacity:1;stroke-width:1.33333" />
      <path
         id="path34"
         d="m 62.903227,101.6129 h 4.83871 v 14.51613 h -4.83871 z m 0,0"
         style="fill:#4d4d4e;fill-opacity:1;stroke-width:1.33333" />
      <path
         id="path36"
         d="m 77.419356,130.64516 h 4.83871 v 4.83871 h -4.83871 z m 0,0"
         style="fill:#4d4d4e;fill-opacity:1;stroke-width:1.33333" />
      <path
         id="path38"
         d="m 77.419356,101.6129 h 4.83871 v 24.19355 h -4.83871 z m 0,0"
         style="fill:#4d4d4e;fill-opacity:1;stroke-width:1.33333" />
      <path
         id="path40"
         d="m 33.870968,125.80645 h 4.83871 v 4.83871 h -4.83871 z m 0,0"
         style="fill:#4d4d4e;fill-opacity:1;stroke-width:1.33333" />
      <path
         id="path42"
         d="m 33.870968,101.6129 h 4.83871 v 19.35484 h -4.83871 z m 0,0"
         style="fill:#4d4d4e;fill-opacity:1;stroke-width:1.33333" />
      <path
         id="path44"
         d="m 34.870371,29.75523 -4.616622,-1.448306 c 1.272287,-4.060216 3.545159,-7.807381 6.574076,-10.836299 5.024178,-5.025359 11.7093,-7.7932055 18.817337,-7.7932055 v 4.8387095 c -5.815666,0 -11.286384,2.264601 -15.396218,6.377977 -2.480782,2.479603 -4.339007,5.541599 -5.378573,8.861124 z m 0,0"
         style="fill:#4d4d4e;fill-opacity:1;stroke-width:1.33333" />
      <path
         id="path46"
         d="m 150,48.387098 c 0,-16.009325 -13.02293,-29.032259 -29.03226,-29.032259 -5.01,0 -9.86879,1.269925 -14.18654,3.696368 C 101.79247,16.507844 93.522005,13.175325 85.040088,15.002835 78.213207,5.5770382 67.347373,0 55.645162,0 37.331072,0 22.139223,13.364337 19.70333,31.333482 7.8558153,36.106038 0,47.632232 0,60.483872 0,77.825732 14.109753,91.935485 31.451613,91.935485 H 101.6129 v 2.042514 h 4.83871 V 75.000001 c 0,-9.33838 7.59711,-16.935484 16.93549,-16.935484 9.33838,0 16.93548,7.597104 16.93548,16.935484 v 18.977998 h 4.83871 V 75.000001 c 0,-2.954495 -0.59775,-5.769596 -1.66921,-8.342522 C 147.6846,61.495087 150,55.079308 150,48.387098 Z m -26.6129,4.838709 c -12.00463,0 -21.7742,9.769564 -21.7742,21.774194 V 87.096776 H 31.451613 c -14.673245,0 -26.6129032,-11.939659 -26.6129032,-26.612904 0,-11.30765 7.1907292,-21.402076 17.8911762,-25.117346 l 1.468388,-0.510333 0.145303,-1.548717 C 25.872212,17.078424 39.328691,4.8387098 55.645162,4.8387098 c 10.640199,0 20.479461,5.3183282 26.259687,14.1262922 l 0.953332,1.664487 1.838141,-0.546953 c 7.793205,-2.317761 15.397398,0.985225 19.319398,7.488423 l 1.316,2.181908 2.11221,-1.427041 c 3.99642,-2.702873 8.67329,-4.132277 13.52381,-4.132277 13.34071,0 24.19355,10.852839 24.19355,24.193549 0,4.937939 -1.51682,9.689232 -4.2823,13.701015 -3.97044,-5.364399 -10.32124,-8.862306 -17.49189,-8.862306 z m 0,0"
         style="fill:#4d4d4e;fill-opacity:1;stroke-width:1.33333" />
      <path
         style="fill:#74a2f0;fill-opacity:1;stroke-width:1.33333"
         id="path48"
         fill="#f0bc5e"
         d="m 123.3871,150 c -0.81984,0 -1.73182,-0.0744 -2.78675,-0.23036 C 107.01511,147.78383 96.774195,135.6658 96.774195,121.5844 V 95.564518 l 0.967506,-0.725335 c 0.421733,-0.317776 10.494899,-7.742407 25.645399,-7.742407 15.1505,0 25.22366,7.424631 25.6454,7.742407 L 150,95.564518 V 121.5844 c 0,14.0814 -10.24091,26.19943 -23.82379,28.18524 C 125.11892,149.92558 124.20694,150 123.3871,150 Z m 0,0" />
      <path
         id="path50"
         d="m 133.46144,135.48387 h -20.14869 l 2.61546,-17.14103 c -2.89543,-2.27642 -4.63789,-5.7755 -4.63789,-9.47187 0,-6.66977 5.42701,-12.096775 12.09678,-12.096775 6.66976,0 12.09677,5.427005 12.09677,12.096775 0,3.69637 -1.74245,7.19545 -4.63788,9.47187 z m -14.51613,-4.83871 h 8.88357 l -2.24215,-14.70041 1.42231,-0.82929 c 2.27642,-1.32545 3.63612,-3.66093 3.63612,-6.24449 0,-4.00115 -3.25691,-7.25807 -7.25806,-7.25807 -4.00115,0 -7.25807,3.25692 -7.25807,7.25807 0,2.58356 1.35971,4.91904 3.63613,6.24449 l 1.42231,0.82929 z m 0,0"
         style="fill:#4d4d4e;fill-opacity:1;stroke-width:1.33333" />
    </g>
  </g>
</svg>
