<?xml version="1.0" encoding="UTF-8" standalone="no"?>
<svg
   xmlns:dc="http://purl.org/dc/elements/1.1/"
   xmlns:cc="http://creativecommons.org/ns#"
   xmlns:rdf="http://www.w3.org/1999/02/22-rdf-syntax-ns#"
   xmlns:svg="http://www.w3.org/2000/svg"
   xmlns="http://www.w3.org/2000/svg"
   xmlns:sodipodi="http://sodipodi.sourceforge.net/DTD/sodipodi-0.dtd"
   xmlns:inkscape="http://www.inkscape.org/namespaces/inkscape"
   height="150"
   viewBox="0 -1 262.51063 112.5"
   width="350"
   version="1.1"
   id="svg34"
   sodipodi:docname="icono2.svg"
   inkscape:version="1.0 (4035a4fb49, 2020-05-01)">
  <metadata
     id="metadata40">
    <rdf:RDF>
      <cc:Work
         rdf:about="">
        <dc:format>image/svg+xml</dc:format>
        <dc:type
           rdf:resource="http://purl.org/dc/dcmitype/StillImage" />
        <dc:title></dc:title>
      </cc:Work>
    </rdf:RDF>
  </metadata>
  <defs
     id="defs38" />
  <sodipodi:namedview
     inkscape:document-rotation="0"
     pagecolor="#ffffff"
     bordercolor="#666666"
     borderopacity="1"
     objecttolerance="10"
     gridtolerance="10"
     guidetolerance="10"
     inkscape:pageopacity="0"
     inkscape:pageshadow="2"
     inkscape:window-width="1920"
     inkscape:window-height="1017"
     id="namedview36"
     showgrid="false"
     inkscape:zoom="1.5717444"
     inkscape:cx="213.77547"
     inkscape:cy="74.810059"
     inkscape:window-x="1592"
     inkscape:window-y="-8"
     inkscape:window-maximized="1"
     inkscape:current-layer="svg34"
     fit-margin-top="0"
     fit-margin-left="0"
     fit-margin-right="0"
     fit-margin-bottom="0"
     units="px" />
  <g
     id="g884">
    <path
       d="m 182.22668,22.661933 c 0,5.026333 -4.0744,9.10162 -9.10162,9.10162 -5.02633,0 -9.10162,-4.075287 -9.10162,-9.10162 0,-5.027224 4.07529,-9.101621 9.10162,-9.101621 5.02722,0 9.10162,4.074397 9.10162,9.101621 z m 0,0"
       id="path2"
       style="fill:#74a2f0;fill-opacity:1;stroke-width:1" />
    <path
       d="m 187.68765,44.505822 c 0,5.026333 -4.07439,9.10162 -9.10162,9.10162 -5.02633,0 -9.10162,-4.075287 -9.10162,-9.10162 0,-5.027223 4.07529,-9.101621 9.10162,-9.101621 5.02723,0 9.10162,4.074398 9.10162,9.101621 z m 0,0"
       id="path4"
       style="fill:#74a2f0;fill-opacity:1;stroke-width:1" />
    <path
       d="m 187.68765,66.349711 c 0,5.026333 -4.07439,9.10162 -9.10162,9.10162 -5.02633,0 -9.10162,-4.075287 -9.10162,-9.10162 0,-5.027224 4.07529,-9.101621 9.10162,-9.101621 5.02723,0 9.10162,4.074397 9.10162,9.101621 z m 0,0"
       id="path6"
       style="fill:#74a2f0;fill-opacity:1;stroke-width:1" />
    <path
       d="m 182.22668,88.1936 c 0,5.026333 -4.0744,9.10162 -9.10162,9.10162 -5.02633,0 -9.10162,-4.075287 -9.10162,-9.10162 0,-5.027224 4.07529,-9.101621 9.10162,-9.101621 5.02722,0 9.10162,4.074397 9.10162,9.101621 z m 0,0"
       id="path8"
       style="fill:#74a2f0;fill-opacity:1;stroke-width:1" />
  </g>
  <path
     style="fill:#4d4d4d;fill-opacity:1;stroke-width:1"
     d="M 131.25761,49.966794 V 39.044849 c 0,-7.02709 -5.71607,-12.742268 -12.74227,-12.742268 -7.0262,0 -12.74227,5.715178 -12.74227,12.742268 v 10.921945 h 3.64065 V 39.044849 c 0,-5.019225 4.08328,-9.10162 9.10162,-9.10162 5.01833,0 9.10162,4.082395 9.10162,9.10162 v 10.921945 z m 0,0"
     id="path12" />
  <path
     style="fill:#4d4d4d;fill-opacity:1;stroke-width:1"
     d="m 158.56247,53.607442 h 29.12518 v 3.640648 h -29.12518 z m 0,0"
     id="path14" />
  <path
     style="fill:#4d4d4d;fill-opacity:1;stroke-width:1"
     d="m 154.92182,55.427766 c 0,-8.981629 -3.33311,-17.624612 -9.38338,-24.339724 l -2.70382,2.437173 c 5.44675,6.044932 8.44655,13.823973 8.44655,21.902551 0,18.066362 -14.69858,32.765834 -32.76583,32.765834 -8.07858,0 -15.85673,-3.000691 -21.901665,-8.448332 l -2.438061,2.702934 c 6.715116,6.052932 15.358096,9.386046 24.339726,9.386046 20.07423,0 36.40648,-16.332255 36.40648,-36.406482 z m 0,0"
     id="path16" />
  <path
     style="fill:#4d4d4d;fill-opacity:1;stroke-width:1"
     d="m 142.85506,28.404664 c -6.71511,-6.051156 -15.35809,-9.38338 -24.33972,-9.38338 -20.074231,0 -36.406484,16.331366 -36.406484,36.406482 0,8.98074 3.333113,17.623723 9.384269,24.338834 l 2.702932,-2.437172 c -5.446751,-6.044933 -8.446552,-13.823086 -8.446552,-21.901662 0,-18.067251 14.699475,-32.765833 32.765835,-32.765833 8.07858,0 15.85673,2.999801 21.90255,8.447441 z m 0,0"
     id="path18" />
  <path
     style="fill:#4d4d4d;fill-opacity:1;stroke-width:1"
     d="M 184.047,9.9196639 V 2.6383676 h -3.64064 v 7.2812963 h -3.64065 V -1.0022806 h -3.64065 V 9.9196639 h -3.64065 V 6.2790158 h -3.64065 v 3.6406481 h -3.64064 V -1.0022806 h -3.64065 V 9.9196639 h -3.64065 V 6.2790158 h -3.64065 v 3.6406481 h -3.64065 V 2.6383676 h -3.64065 v 7.2812963 h -2.69404 l -4.66191,5.8280591 c -7.25197,-3.310892 -15.44343,-4.701911 -23.79843,-3.649536 -19.686698,2.480724 -35.558537,18.612991 -37.743281,38.357464 -1.393686,12.616942 2.46117,24.72992 10.858837,34.106188 8.282119,9.249167 20.147114,14.553705 32.554294,14.553705 6.52223,0 12.75915,-1.434572 18.39078,-4.0344 l 4.39793,5.499196 h 2.69582 v 7.28129 h 3.64065 v -7.28129 h 3.64065 v 3.64064 h 3.64065 v -3.64064 h 3.64065 v 10.92194 h 3.64065 v -10.92194 h 3.64064 v 3.64064 h 3.64065 v -3.64064 h 3.64065 v 10.92194 h 3.64065 v -10.92194 h 3.64065 v 7.28129 h 3.64064 v -7.28129 h 3.64065 v -3.640652 h -44.63438 l -2.83803,-3.545543 c 3.76686,-2.148303 7.19952,-4.851237 10.17977,-8.038581 l 5.73917,4.304605 h 11.865 c 0.75373,2.113637 2.75626,3.640648 5.12588,3.640648 3.01136,0 5.46097,-2.449615 5.46097,-5.460972 0,-3.010468 -2.44961,-5.460973 -5.46097,-5.460973 -2.36962,0 -4.37215,1.527899 -5.12588,3.640649 h -10.65085 l -4.58548,-3.437994 c 2.6105,-3.311782 4.78191,-7.035981 6.39336,-11.121043 0.77683,-1.969647 2.79004,-3.290449 5.01122,-3.290449 h 9.2945 c 0.75373,2.112747 2.75626,3.640648 5.12588,3.640648 3.01136,0 5.46097,-2.450504 5.46097,-5.460972 0,-3.011358 -2.44961,-5.460973 -5.46097,-5.460973 -2.36962,0 -4.37215,1.527011 -5.12588,3.640649 h -9.2945 c -3.70109,0 -7.07598,2.247849 -8.395,5.59163 -6.08049,15.401648 -20.70263,25.353879 -37.25709,25.353879 -11.37347,0 -22.251864,-4.862791 -29.844251,-13.34134 -7.69638,-8.595877 -11.22948,-19.703586 -9.947786,-31.278822 1.998978,-18.090358 16.541128,-32.871603 34.577267,-35.145231 18.23346,-2.296737 35.6892,7.95503 42.4372,24.935241 1.37057,3.451327 4.67613,5.681402 8.42255,5.681402 h 9.30161 c 0.75373,2.112748 2.75626,3.640648 5.12588,3.640648 3.01136,0 5.46097,-2.450504 5.46097,-5.460972 0,-3.011358 -2.44961,-5.460973 -5.46097,-5.460973 -2.36962,0 -4.37215,1.527011 -5.12588,3.640649 h -9.30161 c -2.2443,0 -4.22372,-1.328803 -5.04056,-3.384665 -1.64433,-4.13395 -3.89574,-7.877703 -6.58089,-11.210814 l 4.80946,-3.607762 h 10.65085 c 0.75373,2.112748 2.75626,3.640648 5.12588,3.640648 3.01136,0 5.46097,-2.450504 5.46097,-5.460972 0,-3.011357 -2.44961,-5.460973 -5.46097,-5.460973 -2.36962,0 -4.37215,1.52701 -5.12588,3.640648 h -11.865 l -6.00316,4.502813 c -2.99446,-3.134015 -6.42001,-5.801393 -10.17354,-7.914143 l 3.09579,-3.869966 h 44.63438 V 9.9196639 Z M 173.12506,86.015966 c 1.00349,0 1.82032,0.817724 1.82032,1.820324 0,1.003488 -0.81683,1.820325 -1.82032,1.820325 -1.0026,0 -1.82032,-0.816837 -1.82032,-1.820325 0,-1.0026 0.81772,-1.820324 1.82032,-1.820324 z m 5.46097,-21.486579 c 1.00349,0 1.82033,0.816834 1.82033,1.820324 0,1.0026 -0.81684,1.820324 -1.82033,1.820324 -1.0026,0 -1.82032,-0.817724 -1.82032,-1.820324 0,-1.00349 0.81772,-1.820324 1.82032,-1.820324 z m 0,-21.843889 c 1.00349,0 1.82033,0.816834 1.82033,1.820324 0,1.0026 -0.81684,1.820324 -1.82033,1.820324 -1.0026,0 -1.82032,-0.817724 -1.82032,-1.820324 0,-1.00349 0.81772,-1.820324 1.82032,-1.820324 z m -5.46097,-21.84389 c 1.00349,0 1.82032,0.816835 1.82032,1.820325 0,1.0026 -0.81683,1.820324 -1.82032,1.820324 -1.0026,0 -1.82032,-0.817724 -1.82032,-1.820324 0,-1.00349 0.81772,-1.820325 1.82032,-1.820325 z m 0,0"
     id="path20" />
  <path
     style="fill:#4d4d4d;fill-opacity:1;stroke-width:1"
     d="m 160.38279,28.122905 h 3.64065 v 3.640648 h -3.64065 z m 0,0"
     id="path22" />
  <path
     style="fill:#4d4d4d;fill-opacity:1;stroke-width:1"
     d="m 164.02344,35.404201 h 3.64065 v 3.640648 h -3.64065 z m 0,0"
     id="path24" />
  <path
     style="fill:#4d4d4d;fill-opacity:1;stroke-width:1"
     d="m 160.38279,79.091979 h 3.64065 v 3.640648 h -3.64065 z m 0,0"
     id="path26" />
  <path
     style="fill:#4d4d4d;fill-opacity:1;stroke-width:1"
     d="m 164.02344,71.810683 h 3.64065 v 3.640648 h -3.64065 z m 0,0"
     id="path28" />
  <path
     d="m 129.43728,80.912303 h -21.84389 c -3.01046,0 -5.46097,-2.450504 -5.46097,-5.460972 V 53.607442 c 0,-3.011357 2.45051,-5.460972 5.46097,-5.460972 h 21.84389 c 3.01136,0 5.46097,2.449615 5.46097,5.460972 v 21.843889 c 0,3.010468 -2.44961,5.460972 -5.46097,5.460972 z m 0,0"
     fill="#f0bc5e"
     id="path30"
     style="fill:#74a2f0;fill-opacity:1;stroke-width:1" />
  <path
     style="fill:#4d4d4d;fill-opacity:1;stroke-width:1"
     d="m 123.97631,60.888738 c 0,-3.011357 -2.44961,-5.460972 -5.46097,-5.460972 -3.01047,0 -5.46097,2.449615 -5.46097,5.460972 0,2.369621 1.52701,4.372155 3.64064,5.125883 v 7.616386 h 3.64065 v -7.616386 c 2.11364,-0.753728 3.64065,-2.756262 3.64065,-5.125883 z m -5.46097,1.820324 c -1.0026,0 -1.82033,-0.817723 -1.82033,-1.820324 0,-1.00349 0.81773,-1.820324 1.82033,-1.820324 1.00349,0 1.82032,0.816834 1.82032,1.820324 0,1.002601 -0.81683,1.820324 -1.82032,1.820324 z m 0,0"
     id="path32" />
</svg>
