<?xml version="1.0" encoding="UTF-8" standalone="no"?>
<svg
   xmlns:dc="http://purl.org/dc/elements/1.1/"
   xmlns:cc="http://creativecommons.org/ns#"
   xmlns:rdf="http://www.w3.org/1999/02/22-rdf-syntax-ns#"
   xmlns:svg="http://www.w3.org/2000/svg"
   xmlns="http://www.w3.org/2000/svg"
   xmlns:sodipodi="http://sodipodi.sourceforge.net/DTD/sodipodi-0.dtd"
   xmlns:inkscape="http://www.inkscape.org/namespaces/inkscape"
   sodipodi:docname="logo.svg"
   inkscape:version="1.0 (4035a4fb49, 2020-05-01)"
   id="svg1028"
   version="1.1"
   viewBox="0 0 63.499998 23.815138"
   height="23.815138mm"
   width="63.5mm">
  <defs
     id="defs1022" />
  <sodipodi:namedview
     inkscape:guide-bbox="true"
     inkscape:document-rotation="0"
     showguides="true"
     fit-margin-bottom="0"
     fit-margin-right="0"
     fit-margin-left="0"
     fit-margin-top="0"
     inkscape:window-maximized="1"
     inkscape:window-y="-8"
     inkscape:window-x="1592"
     inkscape:window-height="1017"
     inkscape:window-width="1920"
     showgrid="false"
     inkscape:current-layer="g2183-7-6-7"
     inkscape:document-units="mm"
     inkscape:cy="77.896467"
     inkscape:cx="351.62642"
     inkscape:zoom="0.49497475"
     inkscape:pageshadow="2"
     inkscape:pageopacity="0.0"
     borderopacity="1.0"
     bordercolor="#666666"
     pagecolor="#ffffff"
     id="base" />
  <metadata
     id="metadata1025">
    <rdf:RDF>
      <cc:Work
         rdf:about="">
        <dc:format>image/svg+xml</dc:format>
        <dc:type
           rdf:resource="http://purl.org/dc/dcmitype/StillImage" />
        <dc:title></dc:title>
      </cc:Work>
    </rdf:RDF>
  </metadata>
  <g
     transform="translate(-109.92393,-78.836637)"
     id="layer1"
     inkscape:groupmode="layer"
     inkscape:label="Layer 1">
    <g
       id="g2183-7-6-7"
       transform="matrix(0.6647861,0,0,0.6647861,110.46485,-175.32965)"
       style="stroke-width:1.50424">
      <g
         style="stroke-width:4.90668"
         transform="matrix(0.30656929,0,0,0.30656929,-0.56422352,265.11792)"
         id="g1224">
        <g
           transform="matrix(0.49922781,0,0,0.49922781,-5.7504979,366.79555)"
           id="g1218"
           style="stroke-width:9.82858">
          <path
             sodipodi:nodetypes="ccccccc"
             inkscape:connector-curvature="0"
             id="path943-08-7-6-3-0"
             d="m 202.59534,87.092742 -30.3917,-17.764546 -0.005,106.601784 -3.16328,2.93317 27.30475,19.33439 6.25018,-3.69907 z"
             style="fill:#1652f0;fill-opacity:1;stroke-width:9.82858" />
          <path
             sodipodi:nodetypes="ccccccc"
             inkscape:connector-curvature="0"
             id="path943-08-7-1-7-5-3-0-3"
             d="m 9.8890295,194.77732 0.2396155,-4.48891 26.315501,-16.42846 3.836474,2.34888 66.09768,37.72257 0.10405,36.54702 z"
             style="fill:#0d3396;fill-opacity:1;stroke-width:9.82858" />
          <path
             sodipodi:nodetypes="ccccccc"
             inkscape:connector-curvature="0"
             id="path943-08-7-1-7-5-3-0-3-9-2"
             d="m 202.59029,194.49847 -30.3866,-18.57137 -65.73252,38.01054 -2.40075,-1.0599 -0.70678,35.64685 3.11873,1.95383 z"
             style="fill:#1666f0;fill-opacity:1;stroke-width:9.82858" />
          <path
             sodipodi:nodetypes="ccccccc"
             inkscape:connector-curvature="0"
             id="path943-08-7-6"
             d="m 9.8889714,194.71641 30.3916486,-18.50758 5e-6,-70.54471 2.413339,-3.38083 -30.368548,-16.531666 -2.4363888,1.343997 z"
             style="fill:#1140bc;fill-opacity:1;stroke-width:9.82858" />
          <path
             sodipodi:nodetypes="cccccc"
             inkscape:connector-curvature="0"
             id="path943-08"
             d="M 145.53325,53.930039 V 90.423157 L 106.106,67.659818 l -4.84006,-0.24726 4.62904,-36.29976 z"
             style="fill:#169af0;fill-opacity:1;stroke-width:9.82858" />
          <path
             sodipodi:nodetypes="cccccc"
             inkscape:connector-curvature="0"
             id="path943-08-7"
             d="M 36.373147,71.705454 40.28062,105.66412 106.106,67.659822 106.36034,35.499356 105.89498,31.112798 Z"
             style="fill:#16aaf0;fill-opacity:1;stroke-width:9.82858" />
          <path
             sodipodi:nodetypes="ccccccc"
             inkscape:connector-curvature="0"
             id="path832-67"
             d="m 106.37332,184.7468 39.38255,-22.73752 -0.0675,-42.63811 -39.31505,-22.69855 -39.582368,22.69855 -0.0335,42.65772 z"
             style="fill:#169af0;fill-opacity:1;stroke-width:9.82858" />
          <path
             sodipodi:nodetypes="ccccccc"
             id="path832-8-5"
             d="m 106.37332,184.7468 39.38255,-22.73752 -0.0675,-42.63811 -39.47516,22.76045 -39.422258,-22.76045 -0.0335,42.65772 z"
             style="fill:#165df0;fill-opacity:1;stroke-width:9.82858"
             inkscape:connector-curvature="0" />
          <path
             sodipodi:nodetypes="ccccccc"
             id="path832-0-7"
             d="M 106.37332,184.7468 H 106.106 v -42.55328 0 l -39.315046,-22.82235 -0.0335,42.65772 z"
             style="fill:#103cae;fill-opacity:1;stroke-width:9.82858"
             inkscape:connector-curvature="0" />
          <path
             sodipodi:nodetypes="cccc"
             inkscape:connector-curvature="0"
             id="path943-08-7-1"
             d="M 106.106,67.659822 71.992464,87.304114 74.529926,49.459319 Z"
             style="fill:#16b6f0;fill-opacity:1;stroke-width:9.82858" />
          <path
             sodipodi:nodetypes="cccc"
             inkscape:connector-curvature="0"
             id="path943-08-7-1-7"
             d="M 40.49164,69.300182 71.992464,87.304114 74.529926,49.459319 Z"
             style="fill:#168ff0;fill-opacity:1;stroke-width:9.82858" />
          <path
             sodipodi:nodetypes="cccc"
             inkscape:connector-curvature="0"
             id="path943-08-7-1-7-5"
             d="M 71.992464,87.304114 40.49164,69.300182 c 0,0 -0.211015,36.363938 -0.21102,36.363938 z"
             style="fill:#169af0;fill-opacity:1;stroke-width:9.82858" />
          <path
             sodipodi:nodetypes="cccc"
             inkscape:connector-curvature="0"
             id="path943-08-7-1-7-5-8"
             d="M 9.8890272,87.095621 40.28062,105.66412 40.49164,69.300182 Z"
             style="fill:#16aaf0;fill-opacity:1;stroke-width:9.82858" />
          <path
             sodipodi:nodetypes="cccc"
             inkscape:connector-curvature="0"
             id="path943-08-7-6-3"
             d="M 9.8889795,158.6622 40.28062,176.20883 9.8890295,194.77732 Z"
             style="fill:#0f38a5;fill-opacity:1;stroke-width:9.82858" />
          <path
             sodipodi:nodetypes="cccc"
             inkscape:connector-curvature="0"
             id="path943-08-7-6-3-6"
             d="M 40.280619,140.75738 9.8889288,159.32587 40.28062,176.20883 Z"
             style="fill:#0d359c;fill-opacity:1;stroke-width:9.82858" />
          <path
             sodipodi:nodetypes="cccc"
             inkscape:connector-curvature="0"
             id="path943-08-7-6-2"
             d="M 9.8889288,159.32587 40.280577,141.77924 9.8889778,123.21075 Z"
             style="fill:#0f3aa9;fill-opacity:1;stroke-width:9.82858" />
          <path
             sodipodi:nodetypes="cccc"
             inkscape:connector-curvature="0"
             id="path943-08-7-6-2-5"
             d="m 202.59034,158.38335 -30.39169,-18.56849 30.3916,-18.56849 z"
             style="fill:#1666f0;fill-opacity:1;stroke-width:9.82858" />
          <path
             sodipodi:nodetypes="cccc"
             inkscape:connector-curvature="0"
             id="path943-08-7-1-7-5-3"
             d="m 106.47117,213.93764 -33.241112,-18.91751 0.311246,36.41338 z"
             style="fill:#0f3aa9;fill-opacity:1;stroke-width:9.82858" />
          <path
             sodipodi:nodetypes="cccc"
             inkscape:connector-curvature="0"
             id="path943-08-7-1-7-5-3-0"
             d="m 41.762643,213.14032 31.467415,-18.12019 0.311246,36.41338 z"
             style="fill:#103cae;fill-opacity:1;stroke-width:9.82858" />
          <path
             sodipodi:nodetypes="cccc"
             inkscape:connector-curvature="0"
             id="path943-08-7-1-7-5-3-1"
             d="m 73.230058,195.02013 -32.949438,-18.8113 1.482023,36.93149 z"
             style="fill:#0e369f;fill-opacity:1;stroke-width:9.82858" />
          <path
             sodipodi:nodetypes="cccc"
             inkscape:connector-curvature="0"
             id="path943-08-7-1-7-5-3-0-3-9"
             d="m 73.541304,231.43351 32.929866,-17.49587 0.0112,36.54078 z"
             style="fill:#1140bc;fill-opacity:1;stroke-width:9.82858" />
          <path
             sodipodi:nodetypes="cccc"
             inkscape:connector-curvature="0"
             id="path943-08-7-1-7-5-3-4"
             d="m 106.50458,213.93764 32.81649,-18.99879 0.10232,36.32762 z"
             style="fill:#165df0;fill-opacity:1;stroke-width:9.82858" />
          <path
             sodipodi:nodetypes="cccc"
             inkscape:connector-curvature="0"
             id="path943-08-7-1-7-5-3-0-1"
             d="m 170.72167,213.02563 -31.4006,-18.08678 0.10232,36.32762 z"
             style="fill:#1652f0;fill-opacity:1;stroke-width:9.82858" />
          <path
             sodipodi:nodetypes="cccc"
             inkscape:connector-curvature="0"
             id="path943-08-7-1-7-5-3-1-5"
             d="m 139.31608,194.94173 32.88262,-19.01175 -1.48202,37.09853 z"
             style="fill:#165df0;fill-opacity:1;stroke-width:9.82858" />
          <path
             sodipodi:nodetypes="cccc"
             inkscape:connector-curvature="0"
             id="path943-08-7-1-7-5-3-0-3-7"
             d="m 202.59029,194.49847 -30.3866,-18.57137 -1.48202,37.09853 z"
             style="fill:#000000;fill-opacity:0;stroke-width:9.82858" />
          <path
             sodipodi:nodetypes="cccc"
             inkscape:connector-curvature="0"
             id="path943-08-7-1-8"
             d="m 106.106,67.659822 39.42725,22.763335 c 0,0 -0.21102,-36.48884 0,-36.493118 z"
             style="fill:#16b6f0;fill-opacity:1;stroke-width:9.82858" />
          <path
             sodipodi:nodetypes="cccc"
             id="path832-0-8"
             d="m 106.37332,184.7468 -0.16011,-42.61518 -39.455756,19.89727 z"
             style="fill:#1140bc;fill-opacity:1;stroke-width:9.82858"
             inkscape:connector-curvature="0" />
          <path
             sodipodi:nodetypes="cccc"
             id="path832-0-8-8"
             d="m 145.75587,162.00928 -0.0675,-42.63811 -39.47516,22.76045 z"
             style="fill:#1652f0;fill-opacity:1;stroke-width:9.82858"
             inkscape:connector-curvature="0" />
          <path
             sodipodi:nodetypes="cccccc"
             id="path832-0-8-8-1"
             d="m 106.106,142.19352 c 0,0 0.23823,-37.36177 0.26732,-45.6447 v 0 l -39.582366,22.82235 19.657523,11.41118 z"
             style="fill:#16aaf0;fill-opacity:1;stroke-width:9.82858"
             inkscape:connector-curvature="0" />
          <path
             sodipodi:nodetypes="cccc"
             inkscape:connector-curvature="0"
             id="path943-08-7-6-3-6-1"
             d="M 40.28062,105.66412 9.8889778,123.21075 40.28057,141.77924 Z"
             style="fill:#103db2;fill-opacity:1;stroke-width:9.82858" />
          <path
             sodipodi:nodetypes="cccc"
             inkscape:connector-curvature="0"
             id="path943-08-7-6-3-6-3"
             d="m 172.19865,139.81486 30.39169,18.56849 c 0,0 -30.3917,17.54663 -30.39164,17.54663 z"
             style="fill:#165df0;fill-opacity:1;stroke-width:9.82858" />
          <path
             sodipodi:nodetypes="cccc"
             inkscape:connector-curvature="0"
             id="path943-08-7-6-3-6-1-8"
             d="m 172.19864,104.03491 30.39675,19.17296 -30.39674,16.60699 z"
             style="fill:#1652f0;fill-opacity:1;stroke-width:9.82858" />
          <path
             sodipodi:nodetypes="cccc"
             inkscape:connector-curvature="0"
             id="path943-08-7-6-9"
             d="m 202.59539,123.20787 -30.39675,-19.17296 30.3967,-16.942168 z"
             style="fill:#165df0;fill-opacity:1;stroke-width:9.82858" />
          <path
             sodipodi:nodetypes="cccc"
             inkscape:connector-curvature="0"
             id="path943-08-7-1-7-5-1"
             d="m 202.59534,87.092742 -30.3917,-17.764546 -0.005,34.706714 z"
             style="fill:#1698f0;fill-opacity:1;stroke-width:9.82858" />
        </g>
        <g
           id="g2183-7-6"
           transform="translate(46.001261,-123.76197)"
           style="stroke-width:4.90668">
          <path
             id="path1942-8-8"
             d="m 111.36458,579.9175 c -1.3607,-0.11133 -2.87875,-0.27835 -3.37344,-0.37116 l -0.89945,-0.16874 v -1.7078 c 0,-1.99295 -0.26875,-1.89483 3.59493,-1.31249 3.12114,0.47043 7.08567,0.51665 8.33799,0.0972 2.09278,-0.70095 2.74965,-2.15519 1.83082,-4.05324 -0.67454,-1.39341 -1.9801,-2.32116 -6.33376,-4.50083 -5.68297,-2.8452 -7.29625,-4.5805 -7.24938,-7.79764 0.0139,-0.95458 0.14958,-2.0498 0.3015,-2.43381 0.47484,-1.20031 1.8394,-2.517 3.28629,-3.17098 1.31164,-0.59286 1.6853,-0.62873 6.55036,-0.62873 2.83766,0 5.84399,0.0979 6.68073,0.21748 l 1.52136,0.21747 v 1.59295 1.59295 l -1.38906,-0.11549 c -0.76399,-0.0635 -2.82509,-0.27491 -4.58023,-0.46975 -2.63836,-0.29288 -3.40565,-0.29419 -4.42941,-0.008 -3.16075,0.88495 -3.7035,4.09559 -1.02087,6.03888 0.58111,0.42095 2.61526,1.5794 4.52034,2.57432 5.54935,2.89815 7.42599,4.71938 7.80471,7.5743 0.2235,1.68482 -0.19777,3.18456 -1.22229,4.35142 -2.10856,2.40151 -6.13682,3.11897 -13.93114,2.48123 z"
             style="fill:#0c0a0c;stroke-width:4.90668"
             inkscape:connector-curvature="0" />
          <path
             id="path1940-04-3"
             d="m 137.58198,579.8422 c -1.262,-0.45769 -2.63846,-1.64623 -3.21475,-2.77585 -0.9697,-1.90076 -1.08179,-3.70619 -1.08179,-17.42477 v -13.31286 h 2.63877 2.63875 l 0.0732,3.9026 0.0732,3.9026 3.50573,0.0738 3.50573,0.0738 v 1.71211 1.71211 h -3.58562 -3.58563 l 0.0799,8.40052 c 0.0892,9.38052 0.11594,9.52711 1.94312,10.65637 0.76203,0.47096 1.18213,0.55455 2.12308,0.42241 0.64519,-0.0906 1.70885,-0.23973 2.36369,-0.33142 l 1.19063,-0.1667 v 1.58729 1.58729 l -0.99219,0.164 c -1.64952,0.27265 -6.75476,0.1507 -7.67586,-0.18336 z"
             style="fill:#0c0a0c;stroke-width:4.90668"
             inkscape:connector-curvature="0" />
          <path
             id="path1938-4-1"
             d="m 201.87574,579.8422 c -1.26201,-0.45769 -2.63848,-1.64623 -3.21477,-2.77585 -0.9697,-1.90076 -1.08178,-3.70619 -1.08178,-17.42477 v -13.31286 h 2.63877 2.63875 l 0.0732,3.9026 0.0732,3.9026 3.50573,0.0738 3.50573,0.0738 v 1.71211 1.71211 h -3.58563 -3.58561 l 0.0799,8.40052 c 0.0892,9.38052 0.11597,9.52711 1.94313,10.65637 0.76202,0.47096 1.18213,0.55455 2.12309,0.42241 0.64519,-0.0906 1.70884,-0.23973 2.36368,-0.33142 l 1.19063,-0.1667 v 1.58729 1.58729 l -0.99219,0.164 c -1.64952,0.27265 -6.75476,0.1507 -7.67585,-0.18336 z"
             style="fill:#0c0a0c;stroke-width:4.90668"
             inkscape:connector-curvature="0" />
          <path
             d="m 78.252105,575.6384 c 1.53192,-0.75847 2.47369,-1.85778 2.91763,-3.40572 0.33919,-1.18267 0.33919,-20.99202 0,-22.17469 -0.44394,-1.54795 -1.38571,-2.64726 -2.91763,-3.40572 -1.39594,-0.69113 -1.65188,-0.7242 -6.28386,-0.81186 l -4.82864,-0.0914 v 15.3963 15.39631 l 4.82864,-0.0914 c 4.63198,-0.0876 4.88792,-0.12072 6.28386,-0.81185 z M 61.847935,561.14533 V 542.6245 l 6.54844,0.005 c 3.60164,0.003 7.64,0.1196 8.97414,0.26018 5.33012,0.56163 7.99435,2.57872 8.97157,6.79239 0.34127,1.47152 0.39457,3.51666 0.32237,12.36805 -0.0842,10.32859 -0.10227,10.64429 -0.69134,12.11241 -0.42366,1.05586 -1.02209,1.88807 -1.99771,2.77813 -2.53868,2.31603 -4.69707,2.7058 -15.04986,2.71775 l -7.07761,0.008 z"
             style="fill:#0c0a0c;stroke-width:4.90668"
             id="path1934-9-1"
             inkscape:connector-curvature="0" />
          <path
             id="path1932-5-3"
             d="m 94.391685,566.83387 v -12.83229 h 2.64584 2.64583 v 12.83229 12.8323 h -2.64583 -2.64584 z"
             style="fill:#0c0a0c;stroke-width:4.90668"
             inkscape:connector-curvature="0" />
          <path
             d="m 165.62608,558.77718 c 2.12955,-0.3488 3.31295,-0.98431 4.12891,-2.2173 0.63563,-0.96051 0.71259,-1.34715 0.79693,-4.00407 0.10846,-3.41664 -0.19217,-4.44879 -1.61096,-5.53095 -1.15352,-0.87984 -3.91475,-1.2842 -8.00656,-1.17251 l -2.91041,0.0794 -0.0712,6.21224 c -0.0392,3.41672 -0.0131,6.36352 0.0578,6.54843 0.15716,0.40957 5.28393,0.4666 7.61542,0.0847 z m 2.0552,17.43191 c 2.09537,-0.33881 3.11862,-0.90257 3.8271,-2.10853 0.46403,-0.78989 0.53852,-1.37415 0.53852,-4.22398 0,-3.75392 -0.26901,-4.81368 -1.52634,-6.01297 -1.44598,-1.37923 -2.8002,-1.65994 -8.0079,-1.65994 h -4.62097 v 6.96736 c 0,3.83205 0.0794,7.04673 0.17639,7.14375 0.28166,0.28165 7.72369,0.19983 9.6132,-0.10569 z m -15.08125,-15.09308 v -18.55014 l 8.53281,0.12184 c 7.84821,0.11207 8.67497,0.16799 10.30469,0.69706 3.3172,1.07689 4.49012,2.98074 4.66342,7.5695 0.14623,3.87182 -0.26866,6.11713 -1.44681,7.82986 l -0.91405,1.32879 0.60861,0.50741 c 0.33474,0.27907 0.68209,0.51136 0.7719,0.5162 0.35822,0.0193 1.53741,2.13019 1.93174,3.45802 0.57717,1.94356 0.57118,7.48138 -0.0104,9.5539 -0.85528,3.04821 -3.20429,4.75012 -7.23711,5.24345 -1.23311,0.15085 -5.60866,0.27427 -9.72344,0.27427 h -7.48141 z"
             style="fill:#0c0a0c;stroke-width:4.90668"
             id="path1926-6-8"
             inkscape:connector-curvature="0" />
          <path
             id="path1924-1-1"
             d="m 184.35003,566.83387 v -12.83229 h 2.64583 2.64583 v 12.83229 12.8323 h -2.64583 -2.64583 z"
             style="fill:#0c0a0c;stroke-width:4.90668"
             inkscape:connector-curvature="0" />
          <path
             id="path1910-5-3"
             d="m 94.391685,544.87346 v -3.30729 h 2.64584 2.64583 v 3.30729 3.30729 h -2.64583 -2.64584 z"
             style="fill:#0c0a0c;stroke-width:4.90668"
             inkscape:connector-curvature="0" />
          <path
             id="path1908-2-3"
             d="m 184.35003,544.87346 v -3.30729 h 2.64583 2.64583 v 3.30729 3.30729 h -2.64583 -2.64583 z"
             style="fill:#0c0a0c;stroke-width:4.90668"
             inkscape:connector-curvature="0" />
        </g>
        <g
           aria-label="WALLET"
           id="text1062"
           style="font-style:normal;font-variant:normal;font-weight:normal;font-stretch:normal;font-size:49.4003px;line-height:1.25;font-family:'Manila Sans';-inkscape-font-specification:'Manila Sans, Normal';font-variant-ligatures:normal;font-variant-caps:normal;font-variant-numeric:normal;font-variant-east-asian:normal;letter-spacing:0px;word-spacing:0px;stroke-width:1.95285">
          <g
             id="g1079"
             style="opacity:1;stroke-width:1.95285">
            <path
               style="color:#000000;font-style:normal;font-variant:normal;font-weight:normal;font-stretch:normal;font-size:49.4003px;line-height:1.25;font-family:'Manila Sans';-inkscape-font-specification:'Manila Sans, Normal';font-variant-ligatures:normal;font-variant-position:normal;font-variant-caps:normal;font-variant-numeric:normal;font-variant-alternates:normal;font-variant-east-asian:normal;font-feature-settings:normal;font-variation-settings:normal;text-indent:0;text-align:start;text-decoration:none;text-decoration-line:none;text-decoration-style:solid;text-decoration-color:#000000;letter-spacing:0px;word-spacing:0px;text-transform:none;writing-mode:lr-tb;direction:ltr;text-orientation:mixed;dominant-baseline:auto;baseline-shift:baseline;text-anchor:start;white-space:normal;shape-padding:0;shape-margin:0;inline-size:0;clip-rule:nonzero;display:inline;overflow:visible;visibility:visible;isolation:auto;mix-blend-mode:normal;color-interpolation:sRGB;color-interpolation-filters:linearRGB;solid-color:#000000;solid-opacity:1;vector-effect:none;fill:#000000;fill-opacity:1;fill-rule:nonzero;stroke:none;stroke-width:1.95285;stroke-linecap:butt;stroke-linejoin:miter;stroke-miterlimit:4;stroke-dasharray:none;stroke-dashoffset:0;stroke-opacity:1;color-rendering:auto;image-rendering:auto;shape-rendering:auto;text-rendering:auto;enable-background:accumulate;stop-color:#000000;stop-opacity:1"
               d="m 171.29623,498.88245 10.67046,-34.53081 h -3.65562 l -7.55824,24.70015 -1.08681,5.23643 h -0.247 l -1.03741,-5.33523 -7.50884,-24.60135 h -3.75443 l 1.92662,6.32324 -5.63164,18.37691 -1.08681,5.23643 h -0.247 l -1.0374,-5.33523 -7.50885,-24.60135 h -3.75442 l 10.57166,34.53081 h 3.60622 l 6.86665,-22.27954 6.86664,22.27954 z"
               id="path1081" />
            <path
               style="color:#000000;font-style:normal;font-variant:normal;font-weight:normal;font-stretch:normal;font-size:49.4003px;line-height:1.25;font-family:'Manila Sans';-inkscape-font-specification:'Manila Sans, Normal';font-variant-ligatures:normal;font-variant-position:normal;font-variant-caps:normal;font-variant-numeric:normal;font-variant-alternates:normal;font-variant-east-asian:normal;font-feature-settings:normal;font-variation-settings:normal;text-indent:0;text-align:start;text-decoration:none;text-decoration-line:none;text-decoration-style:solid;text-decoration-color:#000000;letter-spacing:0px;word-spacing:0px;text-transform:none;writing-mode:lr-tb;direction:ltr;text-orientation:mixed;dominant-baseline:auto;baseline-shift:baseline;text-anchor:start;white-space:normal;shape-padding:0;shape-margin:0;inline-size:0;clip-rule:nonzero;display:inline;overflow:visible;visibility:visible;isolation:auto;mix-blend-mode:normal;color-interpolation:sRGB;color-interpolation-filters:linearRGB;solid-color:#000000;solid-opacity:1;vector-effect:none;fill-opacity:1;fill-rule:nonzero;stroke:none;stroke-width:1.95285;stroke-linecap:butt;stroke-linejoin:miter;stroke-miterlimit:4;stroke-dasharray:none;stroke-dashoffset:0;stroke-opacity:1;color-rendering:auto;image-rendering:auto;shape-rendering:auto;text-rendering:auto;enable-background:accumulate;stop-color:#000000;stop-opacity:1"
               d="m 139.375,464.05273 10.75391,35.12891 h 4.04882 l 6.64649,-21.5625 6.64453,21.5625 h 4.04883 l 0.0644,-0.21094 10.79102,-34.91797 h -4.28321 l -7.62695,24.92383 -0.91406,4.4043 -0.87695,-4.5 -7.57813,-24.82813 h -4.37891 l 2.01758,6.6211 -5.60937,18.30273 -0.91407,4.4043 -0.87695,-4.5 -7.57812,-24.82813 z m 0.80859,0.59766 h 3.12891 l 7.43945,24.375 1.08008,5.5625 h 0.73828 l 1.13281,-5.46094 5.6543,-18.45117 -1.83594,-6.02539 h 3.12891 l 7.43945,24.375 1.08204,5.5625 h 0.73828 l 1.13281,-5.46094 7.49023,-24.47656 h 3.0293 l -10.48828,33.93359 h -3.16406 l -7.08594,-22.99804 -7.08789,22.99804 h -3.16406 z"
               id="path1083" />
          </g>
          <g
             id="g1085"
             style="opacity:1;stroke-width:1.95285">
            <path
               style="color:#000000;font-style:normal;font-variant:normal;font-weight:normal;font-stretch:normal;font-size:49.4003px;line-height:1.25;font-family:'Manila Sans';-inkscape-font-specification:'Manila Sans, Normal';font-variant-ligatures:normal;font-variant-position:normal;font-variant-caps:normal;font-variant-numeric:normal;font-variant-alternates:normal;font-variant-east-asian:normal;font-feature-settings:normal;font-variation-settings:normal;text-indent:0;text-align:start;text-decoration:none;text-decoration-line:none;text-decoration-style:solid;text-decoration-color:#000000;letter-spacing:0px;word-spacing:0px;text-transform:none;writing-mode:lr-tb;direction:ltr;text-orientation:mixed;dominant-baseline:auto;baseline-shift:baseline;text-anchor:start;white-space:normal;shape-padding:0;shape-margin:0;inline-size:0;clip-rule:nonzero;display:inline;overflow:visible;visibility:visible;isolation:auto;mix-blend-mode:normal;color-interpolation:sRGB;color-interpolation-filters:linearRGB;solid-color:#000000;solid-opacity:1;vector-effect:none;fill:#000000;fill-opacity:1;fill-rule:nonzero;stroke:none;stroke-width:1.95285;stroke-linecap:butt;stroke-linejoin:miter;stroke-miterlimit:4;stroke-dasharray:none;stroke-dashoffset:0;stroke-opacity:1;color-rendering:auto;image-rendering:auto;shape-rendering:auto;text-rendering:auto;enable-background:accumulate;stop-color:#000000;stop-opacity:1"
               d="m 198.59144,464.30224 h -3.60622 l -10.62107,34.58021 h 3.45802 l 3.01342,-9.83066 h 11.60907 l 3.06282,9.83066 h 3.70502 z m -0.5928,9.97886 3.70502,11.90547 H 191.6754 l 3.75442,-12.00427 c 0,0 1.08681,-5.68104 1.13621,-6.07624 h 0.2964 z"
               id="path1087" />
            <path
               style="color:#000000;font-style:normal;font-variant:normal;font-weight:normal;font-stretch:normal;font-size:49.4003px;line-height:1.25;font-family:'Manila Sans';-inkscape-font-specification:'Manila Sans, Normal';font-variant-ligatures:normal;font-variant-position:normal;font-variant-caps:normal;font-variant-numeric:normal;font-variant-alternates:normal;font-variant-east-asian:normal;font-feature-settings:normal;font-variation-settings:normal;text-indent:0;text-align:start;text-decoration:none;text-decoration-line:none;text-decoration-style:solid;text-decoration-color:#000000;letter-spacing:0px;word-spacing:0px;text-transform:none;writing-mode:lr-tb;direction:ltr;text-orientation:mixed;dominant-baseline:auto;baseline-shift:baseline;text-anchor:start;white-space:normal;shape-padding:0;shape-margin:0;inline-size:0;clip-rule:nonzero;display:inline;overflow:visible;visibility:visible;isolation:auto;mix-blend-mode:normal;color-interpolation:sRGB;color-interpolation-filters:linearRGB;solid-color:#000000;solid-opacity:1;vector-effect:none;fill-opacity:1;fill-rule:nonzero;stroke:none;stroke-width:1.95285;stroke-linecap:butt;stroke-linejoin:miter;stroke-miterlimit:4;stroke-dasharray:none;stroke-dashoffset:0;stroke-opacity:1;color-rendering:auto;image-rendering:auto;shape-rendering:auto;text-rendering:auto;enable-background:accumulate;stop-color:#000000;stop-opacity:1"
               d="m 194.76367,464.00195 -10.80469,35.17969 h 4.08399 l 3.01367,-9.83008 h 11.16797 l 3.0625,9.83008 h 4.33008 L 198.8125,464.00195 h -0.2207 z m 0.44336,0.59961 h 3.16211 l 10.4375,33.98242 h -3.07812 l -3.06446,-9.83203 h -12.04883 l -3.01367,9.83203 h -2.83203 z m 1.0957,3.20508 -0.0332,0.26172 c -0.007,0.0523 -0.0866,0.51215 -0.19531,1.09961 -0.1087,0.58745 -0.24977,1.33373 -0.38867,2.06836 -0.27574,1.45835 -0.54094,2.84829 -0.54493,2.86914 l -3.87304,12.38086 h 10.8418 l -3.82032,-12.28516 -1.17773,-6.39453 z m 0.41407,1.16211 0.99023,5.38477 0.006,0.0156 3.58399,11.51758 h -9.21485 l 3.63867,-11.63086 0.004,-0.0176 c 0,0 0.27087,-1.42056 0.54883,-2.89062 0.13897,-0.73504 0.2797,-1.48143 0.38867,-2.07032 0.0296,-0.16014 0.0306,-0.17778 0.0547,-0.30859 z"
               id="path1089" />
          </g>
          <g
             id="g1091"
             style="opacity:1;stroke-width:1.95285">
            <path
               style="color:#000000;font-style:normal;font-variant:normal;font-weight:normal;font-stretch:normal;font-size:49.4003px;line-height:1.25;font-family:'Manila Sans';-inkscape-font-specification:'Manila Sans, Normal';font-variant-ligatures:normal;font-variant-position:normal;font-variant-caps:normal;font-variant-numeric:normal;font-variant-alternates:normal;font-variant-east-asian:normal;font-feature-settings:normal;font-variation-settings:normal;text-indent:0;text-align:start;text-decoration:none;text-decoration-line:none;text-decoration-style:solid;text-decoration-color:#000000;letter-spacing:0px;word-spacing:0px;text-transform:none;writing-mode:lr-tb;direction:ltr;text-orientation:mixed;dominant-baseline:auto;baseline-shift:baseline;text-anchor:start;white-space:normal;shape-padding:0;shape-margin:0;inline-size:0;clip-rule:nonzero;display:inline;overflow:visible;visibility:visible;isolation:auto;mix-blend-mode:normal;color-interpolation:sRGB;color-interpolation-filters:linearRGB;solid-color:#000000;solid-opacity:1;vector-effect:none;fill:#000000;fill-opacity:1;fill-rule:nonzero;stroke:none;stroke-width:1.95285;stroke-linecap:butt;stroke-linejoin:miter;stroke-miterlimit:4;stroke-dasharray:none;stroke-dashoffset:0;stroke-opacity:1;color-rendering:auto;image-rendering:auto;shape-rendering:auto;text-rendering:auto;enable-background:accumulate;stop-color:#000000;stop-opacity:1"
               d="m 218.38089,495.77023 v -31.46799 h -3.60622 v 34.58021 h 18.57451 v -3.11222 z"
               id="path1093" />
            <path
               style="color:#000000;font-style:normal;font-variant:normal;font-weight:normal;font-stretch:normal;font-size:49.4003px;line-height:1.25;font-family:'Manila Sans';-inkscape-font-specification:'Manila Sans, Normal';font-variant-ligatures:normal;font-variant-position:normal;font-variant-caps:normal;font-variant-numeric:normal;font-variant-alternates:normal;font-variant-east-asian:normal;font-feature-settings:normal;font-variation-settings:normal;text-indent:0;text-align:start;text-decoration:none;text-decoration-line:none;text-decoration-style:solid;text-decoration-color:#000000;letter-spacing:0px;word-spacing:0px;text-transform:none;writing-mode:lr-tb;direction:ltr;text-orientation:mixed;dominant-baseline:auto;baseline-shift:baseline;text-anchor:start;white-space:normal;shape-padding:0;shape-margin:0;inline-size:0;clip-rule:nonzero;display:inline;overflow:visible;visibility:visible;isolation:auto;mix-blend-mode:normal;color-interpolation:sRGB;color-interpolation-filters:linearRGB;solid-color:#000000;solid-opacity:1;vector-effect:none;fill-opacity:1;fill-rule:nonzero;stroke:none;stroke-width:1.95285;stroke-linecap:butt;stroke-linejoin:miter;stroke-miterlimit:4;stroke-dasharray:none;stroke-dashoffset:0;stroke-opacity:1;color-rendering:auto;image-rendering:auto;shape-rendering:auto;text-rendering:auto;enable-background:accumulate;stop-color:#000000;stop-opacity:1"
               d="m 214.47461,464.00195 v 35.17969 h 19.17383 v -3.71094 h -14.96875 v -31.46875 z m 0.59961,0.59961 h 3.00781 v 31.46875 h 0.29883 14.66992 v 2.51367 h -17.97656 z"
               id="path1095" />
          </g>
          <g
             id="g1097"
             style="opacity:1;stroke-width:1.95285">
            <path
               style="color:#000000;font-style:normal;font-variant:normal;font-weight:normal;font-stretch:normal;font-size:49.4003px;line-height:1.25;font-family:'Manila Sans';-inkscape-font-specification:'Manila Sans, Normal';font-variant-ligatures:normal;font-variant-position:normal;font-variant-caps:normal;font-variant-numeric:normal;font-variant-alternates:normal;font-variant-east-asian:normal;font-feature-settings:normal;font-variation-settings:normal;text-indent:0;text-align:start;text-decoration:none;text-decoration-line:none;text-decoration-style:solid;text-decoration-color:#000000;letter-spacing:0px;word-spacing:0px;text-transform:none;writing-mode:lr-tb;direction:ltr;text-orientation:mixed;dominant-baseline:auto;baseline-shift:baseline;text-anchor:start;white-space:normal;shape-padding:0;shape-margin:0;inline-size:0;clip-rule:nonzero;display:inline;overflow:visible;visibility:visible;isolation:auto;mix-blend-mode:normal;color-interpolation:sRGB;color-interpolation-filters:linearRGB;solid-color:#000000;solid-opacity:1;vector-effect:none;fill:#000000;fill-opacity:1;fill-rule:nonzero;stroke:none;stroke-width:1.95285;stroke-linecap:butt;stroke-linejoin:miter;stroke-miterlimit:4;stroke-dasharray:none;stroke-dashoffset:0;stroke-opacity:1;color-rendering:auto;image-rendering:auto;shape-rendering:auto;text-rendering:auto;enable-background:accumulate;stop-color:#000000;stop-opacity:1"
               d="m 243.17752,495.77023 v -31.46799 h -3.60622 v 34.58021 h 18.57451 v -3.11222 z"
               id="path1099" />
            <path
               style="color:#000000;font-style:normal;font-variant:normal;font-weight:normal;font-stretch:normal;font-size:49.4003px;line-height:1.25;font-family:'Manila Sans';-inkscape-font-specification:'Manila Sans, Normal';font-variant-ligatures:normal;font-variant-position:normal;font-variant-caps:normal;font-variant-numeric:normal;font-variant-alternates:normal;font-variant-east-asian:normal;font-feature-settings:normal;font-variation-settings:normal;text-indent:0;text-align:start;text-decoration:none;text-decoration-line:none;text-decoration-style:solid;text-decoration-color:#000000;letter-spacing:0px;word-spacing:0px;text-transform:none;writing-mode:lr-tb;direction:ltr;text-orientation:mixed;dominant-baseline:auto;baseline-shift:baseline;text-anchor:start;white-space:normal;shape-padding:0;shape-margin:0;inline-size:0;clip-rule:nonzero;display:inline;overflow:visible;visibility:visible;isolation:auto;mix-blend-mode:normal;color-interpolation:sRGB;color-interpolation-filters:linearRGB;solid-color:#000000;solid-opacity:1;vector-effect:none;fill-opacity:1;fill-rule:nonzero;stroke:none;stroke-width:1.95285;stroke-linecap:butt;stroke-linejoin:miter;stroke-miterlimit:4;stroke-dasharray:none;stroke-dashoffset:0;stroke-opacity:1;color-rendering:auto;image-rendering:auto;shape-rendering:auto;text-rendering:auto;enable-background:accumulate;stop-color:#000000;stop-opacity:1"
               d="m 239.27148,464.00195 v 35.17969 h 19.17383 v -3.71094 h -14.96875 v -31.46875 z m 0.59961,0.59961 h 3.00782 v 31.46875 h 0.29882 14.66797 v 2.51367 h -17.97461 z"
               id="path1101" />
          </g>
          <g
             id="g1103"
             style="opacity:1;stroke-width:1.95285">
            <path
               style="color:#000000;font-style:normal;font-variant:normal;font-weight:normal;font-stretch:normal;font-size:49.4003px;line-height:1.25;font-family:'Manila Sans';-inkscape-font-specification:'Manila Sans, Normal';font-variant-ligatures:normal;font-variant-position:normal;font-variant-caps:normal;font-variant-numeric:normal;font-variant-alternates:normal;font-variant-east-asian:normal;font-feature-settings:normal;font-variation-settings:normal;text-indent:0;text-align:start;text-decoration:none;text-decoration-line:none;text-decoration-style:solid;text-decoration-color:#000000;letter-spacing:0px;word-spacing:0px;text-transform:none;writing-mode:lr-tb;direction:ltr;text-orientation:mixed;dominant-baseline:auto;baseline-shift:baseline;text-anchor:start;white-space:normal;shape-padding:0;shape-margin:0;inline-size:0;clip-rule:nonzero;display:inline;overflow:visible;visibility:visible;isolation:auto;mix-blend-mode:normal;color-interpolation:sRGB;color-interpolation-filters:linearRGB;solid-color:#000000;solid-opacity:1;vector-effect:none;fill:#000000;fill-opacity:1;fill-rule:nonzero;stroke:none;stroke-width:1.95285;stroke-linecap:butt;stroke-linejoin:miter;stroke-miterlimit:4;stroke-dasharray:none;stroke-dashoffset:0;stroke-opacity:1;color-rendering:auto;image-rendering:auto;shape-rendering:auto;text-rendering:auto;enable-background:accumulate;stop-color:#000000;stop-opacity:1"
               d="m 264.36794,498.88245 h 19.41432 v -3.11222 h -15.8575 v -13.48628 h 14.02969 v -3.01342 h -14.02969 v -11.85607 h 15.8575 v -3.11222 h -19.41432 z"
               id="path1105" />
            <path
               style="color:#000000;font-style:normal;font-variant:normal;font-weight:normal;font-stretch:normal;font-size:49.4003px;line-height:1.25;font-family:'Manila Sans';-inkscape-font-specification:'Manila Sans, Normal';font-variant-ligatures:normal;font-variant-position:normal;font-variant-caps:normal;font-variant-numeric:normal;font-variant-alternates:normal;font-variant-east-asian:normal;font-feature-settings:normal;font-variation-settings:normal;text-indent:0;text-align:start;text-decoration:none;text-decoration-line:none;text-decoration-style:solid;text-decoration-color:#000000;letter-spacing:0px;word-spacing:0px;text-transform:none;writing-mode:lr-tb;direction:ltr;text-orientation:mixed;dominant-baseline:auto;baseline-shift:baseline;text-anchor:start;white-space:normal;shape-padding:0;shape-margin:0;inline-size:0;clip-rule:nonzero;display:inline;overflow:visible;visibility:visible;isolation:auto;mix-blend-mode:normal;color-interpolation:sRGB;color-interpolation-filters:linearRGB;solid-color:#000000;solid-opacity:1;vector-effect:none;fill-opacity:1;fill-rule:nonzero;stroke:none;stroke-width:1.95285;stroke-linecap:butt;stroke-linejoin:miter;stroke-miterlimit:4;stroke-dasharray:none;stroke-dashoffset:0;stroke-opacity:1;color-rendering:auto;image-rendering:auto;shape-rendering:auto;text-rendering:auto;enable-background:accumulate;stop-color:#000000;stop-opacity:1"
               d="m 264.06836,464.00195 v 35.17969 h 0.29883 19.71484 v -3.71094 h -15.85742 v -12.88672 h 14.0293 v -3.61328 h -14.0293 v -11.25781 h 15.85742 v -3.71094 z m 0.59961,0.59961 h 18.81445 v 2.51367 H 267.625 v 12.45508 h 14.0293 v 2.41407 H 267.625 v 14.08593 h 15.85742 v 2.51367 h -18.81445 z"
               id="path1107" />
          </g>
          <g
             id="g1109"
             style="opacity:1;stroke-width:1.95285">
            <path
               style="color:#000000;font-style:normal;font-variant:normal;font-weight:normal;font-stretch:normal;font-size:49.4003px;line-height:1.25;font-family:'Manila Sans';-inkscape-font-specification:'Manila Sans, Normal';font-variant-ligatures:normal;font-variant-position:normal;font-variant-caps:normal;font-variant-numeric:normal;font-variant-alternates:normal;font-variant-east-asian:normal;font-feature-settings:normal;font-variation-settings:normal;text-indent:0;text-align:start;text-decoration:none;text-decoration-line:none;text-decoration-style:solid;text-decoration-color:#000000;letter-spacing:0px;word-spacing:0px;text-transform:none;writing-mode:lr-tb;direction:ltr;text-orientation:mixed;dominant-baseline:auto;baseline-shift:baseline;text-anchor:start;white-space:normal;shape-padding:0;shape-margin:0;inline-size:0;clip-rule:nonzero;display:inline;overflow:visible;visibility:visible;isolation:auto;mix-blend-mode:normal;color-interpolation:sRGB;color-interpolation-filters:linearRGB;solid-color:#000000;solid-opacity:1;vector-effect:none;fill:#000000;fill-opacity:1;fill-rule:nonzero;stroke:none;stroke-width:1.95285;stroke-linecap:butt;stroke-linejoin:miter;stroke-miterlimit:4;stroke-dasharray:none;stroke-dashoffset:0;stroke-opacity:1;color-rendering:auto;image-rendering:auto;shape-rendering:auto;text-rendering:auto;enable-background:accumulate;stop-color:#000000;stop-opacity:1"
               d="m 310.46151,464.30224 h -22.67474 v 3.11222 h 9.48486 v 31.46799 h 3.65562 v -31.46799 h 9.53426 z"
               id="path1111" />
            <path
               style="color:#000000;font-style:normal;font-variant:normal;font-weight:normal;font-stretch:normal;font-size:49.4003px;line-height:1.25;font-family:'Manila Sans';-inkscape-font-specification:'Manila Sans, Normal';font-variant-ligatures:normal;font-variant-position:normal;font-variant-caps:normal;font-variant-numeric:normal;font-variant-alternates:normal;font-variant-east-asian:normal;font-feature-settings:normal;font-variation-settings:normal;text-indent:0;text-align:start;text-decoration:none;text-decoration-line:none;text-decoration-style:solid;text-decoration-color:#000000;letter-spacing:0px;word-spacing:0px;text-transform:none;writing-mode:lr-tb;direction:ltr;text-orientation:mixed;dominant-baseline:auto;baseline-shift:baseline;text-anchor:start;white-space:normal;shape-padding:0;shape-margin:0;inline-size:0;clip-rule:nonzero;display:inline;overflow:visible;visibility:visible;isolation:auto;mix-blend-mode:normal;color-interpolation:sRGB;color-interpolation-filters:linearRGB;solid-color:#000000;solid-opacity:1;vector-effect:none;fill-opacity:1;fill-rule:nonzero;stroke:none;stroke-width:1.95285;stroke-linecap:butt;stroke-linejoin:miter;stroke-miterlimit:4;stroke-dasharray:none;stroke-dashoffset:0;stroke-opacity:1;color-rendering:auto;image-rendering:auto;shape-rendering:auto;text-rendering:auto;enable-background:accumulate;stop-color:#000000;stop-opacity:1"
               d="m 287.48828,464.00195 v 3.71094 h 9.48438 v 31.46875 h 4.2539 v -31.46875 h 9.53516 v -3.71094 h -0.30078 z m 0.59766,0.59961 h 22.07617 v 2.51367 h -9.53516 v 31.46875 h -3.05664 v -31.46875 h -9.48437 z"
               id="path1113" />
          </g>
        </g>
      </g>
    </g>
  </g>
</svg>
